HIERARCHY
ROOT Hips
{
 OFFSET 0.000000 0.000000 0.000000
 CHANNELS 6 Xposition Yposition Zposition Yrotation Xrotation Zrotation
 JOINT Chest
 {
  OFFSET 0.000000 9.585900 0.002600
  CHANNELS 3 Yrotation Xrotation Zrotation
  JOINT Chest2
  {
   OFFSET 0.000000 9.601200 -0.005300
   CHANNELS 3 Yrotation Xrotation Zrotation
   JOINT Chest3
   {
    OFFSET 0.000000 9.561800 0.000000
    CHANNELS 3 Yrotation Xrotation Zrotation
    JOINT Chest4
    {
     OFFSET 0.000000 9.552100 0.000000
     CHANNELS 3 Yrotation Xrotation Zrotation
     JOINT Neck
     {
      OFFSET 0.000000 14.453000 0.000000
      CHANNELS 3 Yrotation Xrotation Zrotation
      JOINT Head
      {
       OFFSET 0.000000 8.936500 -0.011300
       CHANNELS 3 Yrotation Xrotation Zrotation
       End Site
       {
        OFFSET 0.000000 17.073600 -0.006000
       }
      }
     }
     JOINT RightCollar
     {
      OFFSET -2.921100 9.558500 0.000000
      CHANNELS 3 Yrotation Xrotation Zrotation
      JOINT RightShoulder
      {
       OFFSET -13.519700 0.000000 0.000000
       CHANNELS 3 Yrotation Xrotation Zrotation
       JOINT RightElbow
       {
        OFFSET 0.000000 -29.696600 0.000000
        CHANNELS 3 Yrotation Xrotation Zrotation
        JOINT RightWrist
        {
         OFFSET 0.000000 -24.004700 0.000000
         CHANNELS 3 Yrotation Xrotation Zrotation
         End Site
         {
          OFFSET 0.000000 -17.728500 0.000000
         }
        }
       }
      }
     }
     JOINT LeftCollar
     {
      OFFSET 2.921100 9.558500 0.000000
      CHANNELS 3 Yrotation Xrotation Zrotation
      JOINT LeftShoulder
      {
       OFFSET 13.519700 0.000000 0.000000
       CHANNELS 3 Yrotation Xrotation Zrotation
       JOINT LeftElbow
       {
        OFFSET 0.000000 -29.696600 0.000000
        CHANNELS 3 Yrotation Xrotation Zrotation
        JOINT LeftWrist
        {
         OFFSET 0.000000 -24.004700 0.000000
         CHANNELS 3 Yrotation Xrotation Zrotation
         End Site
         {
          OFFSET 0.000000 -17.728500 0.000000
         }
        }
       }
      }
     }
    }
   }
  }
 }
 JOINT RightHip
 {
  OFFSET -7.771700 -0.012900 -0.001300
  CHANNELS 3 Yrotation Xrotation Zrotation
  JOINT RightKnee
  {
   OFFSET 0.000000 -40.869800 0.001200
   CHANNELS 3 Yrotation Xrotation Zrotation
   JOINT RightAnkle
   {
    OFFSET 0.000000 -39.717900 0.002100
    CHANNELS 3 Yrotation Xrotation Zrotation
    JOINT RightToe
    {
     OFFSET 0.000000 -4.965400 11.033500
     CHANNELS 3 Yrotation Xrotation Zrotation
     End Site
     {
      OFFSET 0.000000 -1.423100 5.872300
     }
    }
   }
  }
 }
 JOINT LeftHip
 {
  OFFSET 7.771700 -0.012900 -0.001300
  CHANNELS 3 Yrotation Xrotation Zrotation
  JOINT LeftKnee
  {
   OFFSET 0.000000 -40.869800 0.001200
   CHANNELS 3 Yrotation Xrotation Zrotation
   JOINT LeftAnkle
   {
    OFFSET 0.000000 -39.717900 0.002100
    CHANNELS 3 Yrotation Xrotation Zrotation
    JOINT LeftToe
    {
     OFFSET 0.000000 -4.965400 11.033500
     CHANNELS 3 Yrotation Xrotation Zrotation
     End Site
     {
      OFFSET 0.000000 -1.423100 5.872300
     }
    }
   }
  }
 }
}
MOTION
Frames: 12
Frame Time: 0.008333
0.000000 85.388000 0.000000 0.000000 -5.767877 0.000000 0.000000 11.653817 0.000000 0.000000 -5.885947 0.000000 0.000000 -0.000000 0.000000 0.000000 -0.000000 0.000000 0.000000 12.528835 0.000000 0.000000 0.711642 0.000000 0.000000 -0.000000 0.000000 0.000000 0.000000 -90.000000 0.000000 -2.309062 0.000000 0.000000 2.309062 0.000000 0.000000 -0.000000 0.000000 0.000000 -0.000000 90.000000 0.000000 -2.309062 0.000000 0.000000 2.309062 0.000000 0.000000 8.520406 0.000000 0.000000 1.905762 0.000000 -0.000000 -4.658285 0.000000 0.000000 -0.000000 0.000000 0.000000 8.520406 0.000000 0.000000 1.905762 0.000000 -0.000000 -4.658285 0.000000 0.000000 -0.000000 0.000000
-36.506945 46.677317 17.972449 175.695496 -31.051038 -3.128060 0.301177 18.627521 2.250058 -0.087535 2.137387 0.266502 -0.170222 3.516306 0.417682 -0.600794 16.089685 1.848866 -6.259951 18.292841 0.385978 -11.620378 -1.557523 2.719827 0.254283 1.710494 -2.925260 6.480740 -8.431102 -16.951078 -54.941433 -57.902164 104.700044 -2.185613 7.030607 -22.258327 -0.195506 -0.133085 1.878409 -4.819612 -3.782905 13.928732 80.624551 -73.010575 -119.028715 -3.238716 9.928133 3.992788 2.418691 -56.033410 -9.281512 -156.642920 79.925180 -148.551322 -8.275374 -11.754738 -4.432705 0.354809 -0.446307 -0.051938 -3.809722 -57.663553 11.920966 -121.068455 82.479224 -124.217012 7.103236 -7.804629 3.902837 -0.278130 0.400295 -0.239964
-36.478804 46.680092 17.978234 175.642916 -31.089528 -3.167712 0.297123 18.625628 2.249386 -0.105296 2.124982 0.250708 -0.169112 3.513692 0.412620 -0.577116 16.098073 1.843869 -6.301671 18.269968 0.365168 -11.691637 -1.598697 2.697052 0.242520 1.709784 -2.914438 6.415056 -8.413561 -16.919893 -54.886245 -57.901082 104.730791 -2.165496 7.022540 -22.304751 -0.239288 -0.171336 1.840079 -4.790871 -3.772670 13.932114 80.586683 -73.041485 -118.968287 -3.301834 9.937920 3.922691 2.181270 -55.985629 -9.026721 -156.638190 79.975574 -148.545625 -8.339648 -11.819530 -4.508129 0.403809 -0.381858 -0.022896 -3.862715 -57.627739 12.013128 -121.269547 82.482375 -124.378953 7.168598 -7.818722 3.892000 -0.329433 0.397492 -0.248821
-36.448105 46.681850 17.987273 175.582903 -31.119807 -3.200661 0.299011 18.617090 2.247046 -0.104795 2.123611 0.248181 -0.133312 3.532067 0.433764 -0.576402 16.096142 1.834936 -6.398653 18.211019 0.336769 -11.786813 -1.657226 2.700753 0.198916 1.687448 -2.925388 6.352838 -8.394430 -16.887480 -54.891188 -57.902774 104.701103 -2.160792 7.039606 -22.271165 -0.282775 -0.207584 1.801743 -4.792963 -3.793833 13.904280 80.527296 -73.075812 -118.885164 -3.338713 9.980230 3.897723 2.036380 -55.952645 -8.838074 -156.651082 80.015759 -148.514140 -8.409086 -11.854852 -4.585255 0.479205 -0.348901 0.008162 -3.906117 -57.599502 12.122267 -121.369175 82.473977 -124.449819 7.209404 -7.832149 3.884385 -0.359630 0.398155 -0.248506
-36.418082 46.683413 17.997382 175.529860 -31.152711 -3.219661 0.290371 18.613251 2.228208 -0.104361 2.122958 0.245895 -0.151049 3.520434 0.416966 -0.515129 16.122946 1.859530 -6.510537 18.144064 0.324289 -11.919607 -1.737621 2.736183 0.162570 1.671446 -2.935421 6.294492 -8.374145 -16.856538 -54.891570 -57.887104 104.667283 -2.164268 7.051324 -22.264136 -0.273573 -0.205743 1.799276 -4.825230 -3.840352 13.852548 80.512507 -73.096144 -118.863047 -3.365313 10.045106 3.902259 1.905391 -55.921849 -8.666903 -156.604524 80.047758 -148.446828 -8.452231 -11.877660 -4.645881 0.492707 -0.332654 0.074436 -3.925158 -57.571577 12.197646 -121.440024 82.462282 -124.495544 7.254307 -7.836156 3.890056 -0.389722 0.392002 -0.263643
-36.389105 46.685205 18.007564 175.485609 -31.193174 -3.230090 0.271836 18.620228 2.197385 -0.103899 2.122936 0.243844 -0.167046 3.510521 0.401270 -0.494640 16.127082 1.851051 -6.605053 18.089792 0.346689 -12.106191 -1.841613 2.807196 0.165711 1.682705 -2.923729 6.300273 -8.353176 -16.826340 -54.894481 -57.856889 104.611890 -2.180746 7.048249 -22.312825 -0.271031 -0.211035 1.783727 -4.820473 -3.855876 13.828521 80.481577 -73.114080 -118.823045 -3.392895 10.121544 3.917025 1.785213 -55.888094 -8.512460 -156.534591 80.071041 -148.375537 -8.461271 -11.885404 -4.701731 0.494098 -0.325339 0.097122 -3.937675 -57.539917 12.254089 -121.504189 82.443880 -124.542085 7.304019 -7.827377 3.908128 -0.428622 0.372748 -0.284099
-36.364885 46.687279 18.016868 175.446564 -31.243570 -3.214921 0.242860 18.640917 2.136875 -0.072519 2.137266 0.265620 -0.198182 3.496198 0.374946 -0.552740 16.103468 1.792586 -6.669327 18.045090 0.404612 -12.359388 -1.964828 2.918468 0.226864 1.715198 -2.885455 6.218717 -8.330083 -16.799951 -54.852779 -57.818015 104.609315 -2.203921 7.040981 -22.375953 -0.208924 -0.197012 1.790675 -4.818941 -3.872413 13.802640 80.442043 -73.130413 -118.772522 -3.418194 10.206021 3.940546 1.757346 -55.841904 -8.445977 -156.443247 80.080369 -148.284976 -8.432191 -11.899663 -4.683066 0.474853 -0.312553 0.079716 -3.921645 -57.492024 12.276732 -121.470845 82.422831 -124.505732 7.335612 -7.821047 3.904048 -0.460932 0.357653 -0.270524
-36.333935 46.685762 18.033877 175.372853 -31.253334 -3.232906 0.262408 18.622272 2.130966 -0.086999 2.129661 0.251566 -0.181247 3.503472 0.382238 -0.567597 16.096842 1.759844 -6.815114 17.969587 0.463903 -12.686220 -2.101768 3.069814 0.250536 1.729815 -2.856767 6.138224 -8.300894 -16.769556 -54.807353 -57.778079 104.603251 -2.230339 7.032199 -22.447893 -0.172488 -0.190248 1.791270 -4.827674 -3.899449 13.767245 80.403111 -73.145865 -118.724184 -3.439595 10.294111 3.975689 1.683174 -55.837696 -8.317956 -156.544710 80.133099 -148.306045 -8.498935 -11.897924 -4.788295 0.547601 -0.317340 0.125775 -3.965124 -57.482752 12.406889 -121.434226 82.405561 -124.469597 7.366035 -7.834397 3.917880 -0.497814 0.364602 -0.281168
-36.310396 46.685857 18.047272 175.262769 -31.289311 -3.198804 0.305827 18.630612 2.091952 -0.101906 2.122407 0.236768 -0.163911 3.509782 0.389662 -0.564771 16.096761 1.741066 -7.017739 17.876265 0.525048 -13.085123 -2.249550 3.256145 0.262845 1.737576 -2.835134 6.083598 -8.267184 -16.736673 -54.774019 -57.740289 104.579906 -2.260654 7.025182 -22.523545 -0.154579 -0.189918 1.776479 -4.829646 -3.922000 13.733932 80.370788 -73.159758 -118.686804 -3.468471 10.387277 3.998069 1.573137 -55.829831 -8.158720 -156.604797 80.167101 -148.388703 -8.519790 -11.863861 -4.851709 0.568837 -0.342899 0.127944 -3.909064 -57.450356 12.458504 -121.385985 82.393412 -124.419233 7.419750 -7.836601 3.941980 -0.546124 0.360819 -0.303465
-36.292076 46.683069 18.065118 175.261705 -31.288879 -3.208913 0.250727 18.608936 2.040680 -0.101380 2.121949 0.234003 -0.163041 3.509042 0.385138 -0.528057 16.109348 1.754412 -7.295209 17.758310 0.571838 -13.551156 -2.406717 3.470855 0.270644 1.741494 -2.823329 6.008369 -8.235094 -16.717902 -54.741907 -57.700794 104.556829 -2.289800 7.016502 -22.601325 -0.170387 -0.206085 1.732945 -4.824853 -3.932185 13.702206 80.355145 -73.174564 -118.668148 -3.503546 10.506360 4.000636 1.502839 -55.837556 -8.108999 -156.606160 80.196441 -148.367066 -8.475453 -11.849819 -4.856946 0.539452 -0.343495 0.105894 -3.956832 -57.447643 12.511297 -121.197942 82.363766 -124.236351 7.415292 -7.836073 3.918052 -0.507468 0.366003 -0.275469
-36.277426 46.681834 18.080549 175.225836 -31.306920 -3.196528 0.225852 18.605422 1.984734 -0.101016 2.121339 0.231213 -0.162527 3.508067 0.380576 -0.546498 16.102349 1.716387 -7.543537 17.658316 0.658909 -14.079542 -2.571673 3.707151 0.332709 1.765115 -2.774545 5.940199 -8.198973 -16.699372 -54.702020 -57.655643 104.525582 -2.315957 7.005622 -22.681019 -0.135095 -0.204275 1.721896 -4.814121 -3.929072 13.670564 80.358374 -73.192456 -118.666896 -3.540611 10.595247 4.028399 1.465648 -55.830026 -8.069674 -156.561001 80.219833 -148.305539 -8.427344 -11.820188 -4.901747 0.516572 -0.355427 0.127275 -3.968020 -57.428237 12.556654 -121.096129 82.348911 -124.147244 7.420367 -7.833885 3.909218 -0.501016 0.366422 -0.261971
-36.266362 46.680655 18.096311 175.193594 -31.321522 -3.183696 0.198526 18.601094 1.926353 -0.100848 2.120441 0.228497 -0.162371 3.506652 0.376031 -0.565226 16.094174 1.679008 -7.821816 17.553589 0.748229 -14.662351 -2.740853 3.958572 0.372137 1.775249 -2.739948 5.901687 -8.152151 -16.663558 -54.652074 -57.606968 104.480907 -2.342223 6.997141 -22.758260 -0.101389 -0.202660 1.708644 -4.799430 -3.919576 13.639323 80.362430 -73.211293 -118.664725 -3.583337 10.692501 4.049210 1.420391 -55.828726 -8.032892 -156.476596 80.237735 -148.215080 -8.361359 -11.778555 -4.923656 0.484275 -0.372938 0.103310 -3.973873 -57.410890 12.593545 -120.979268 82.338222 -124.040859 7.407370 -7.833084 3.902934 -0.472093 0.371056 -0.249818
